<mxfile>
    <diagram id="XYwotbWqkDbKZUmBveaY" name="Page-1">
        <mxGraphModel dx="1180" dy="817" grid="1" gridSize="10" guides="1" tooltips="1" connect="1" arrows="1" fold="1" page="1" pageScale="1" pageWidth="827" pageHeight="1169" math="0" shadow="0">
            <root>
                <mxCell id="0"/>
                <mxCell id="1" parent="0"/>
                <mxCell id="2" value="Terminal&lt;br&gt;(tty)" style="ellipse;whiteSpace=wrap;html=1;" vertex="1" parent="1">
                    <mxGeometry x="350" y="380" width="120" height="80" as="geometry"/>
                </mxCell>
                <mxCell id="3" value="Login" style="ellipse;whiteSpace=wrap;html=1;" vertex="1" parent="1">
                    <mxGeometry x="120" y="400" width="70" height="40" as="geometry"/>
                </mxCell>
                <mxCell id="4" value="user" style="ellipse;whiteSpace=wrap;html=1;" vertex="1" parent="1">
                    <mxGeometry x="10" y="340" width="70" height="40" as="geometry"/>
                </mxCell>
                <mxCell id="5" value="password" style="ellipse;whiteSpace=wrap;html=1;" vertex="1" parent="1">
                    <mxGeometry x="10" y="420" width="70" height="40" as="geometry"/>
                </mxCell>
                <mxCell id="6" value="" style="endArrow=none;html=1;curved=1;" edge="1" parent="1" source="5" target="3">
                    <mxGeometry width="50" height="50" relative="1" as="geometry">
                        <mxPoint x="390" y="440" as="sourcePoint"/>
                        <mxPoint x="440" y="390" as="targetPoint"/>
                    </mxGeometry>
                </mxCell>
                <mxCell id="7" value="" style="endArrow=none;html=1;curved=1;" edge="1" parent="1" source="4" target="3">
                    <mxGeometry width="50" height="50" relative="1" as="geometry">
                        <mxPoint x="88.52998521380619" y="444.26460779237505" as="sourcePoint"/>
                        <mxPoint x="131.64759769953662" y="436.0640731455387" as="targetPoint"/>
                    </mxGeometry>
                </mxCell>
                <mxCell id="8" value="" style="endArrow=none;html=1;curved=1;" edge="1" parent="1" source="3" target="2">
                    <mxGeometry width="50" height="50" relative="1" as="geometry">
                        <mxPoint x="98.52998521380619" y="454.26460779237505" as="sourcePoint"/>
                        <mxPoint x="141.64759769953662" y="446.0640731455387" as="targetPoint"/>
                    </mxGeometry>
                </mxCell>
                <mxCell id="9" value="Commands" style="ellipse;whiteSpace=wrap;html=1;" vertex="1" parent="1">
                    <mxGeometry x="375" y="280" width="70" height="40" as="geometry"/>
                </mxCell>
                <mxCell id="10" value="" style="endArrow=none;html=1;curved=1;" edge="1" parent="1" source="2" target="9">
                    <mxGeometry width="50" height="50" relative="1" as="geometry">
                        <mxPoint x="200" y="430" as="sourcePoint"/>
                        <mxPoint x="360" y="430" as="targetPoint"/>
                    </mxGeometry>
                </mxCell>
                <mxCell id="11" value="su&lt;br&gt;(switch user)" style="ellipse;whiteSpace=wrap;html=1;" vertex="1" parent="1">
                    <mxGeometry x="120" y="170" width="100" height="50" as="geometry"/>
                </mxCell>
                <mxCell id="12" value="" style="endArrow=none;html=1;curved=1;" edge="1" parent="1" source="9" target="11">
                    <mxGeometry width="50" height="50" relative="1" as="geometry">
                        <mxPoint x="420" y="390" as="sourcePoint"/>
                        <mxPoint x="420" y="330" as="targetPoint"/>
                    </mxGeometry>
                </mxCell>
                <mxCell id="14" value="exit&lt;br&gt;(close session)" style="ellipse;whiteSpace=wrap;html=1;" vertex="1" parent="1">
                    <mxGeometry x="240" y="170" width="100" height="50" as="geometry"/>
                </mxCell>
                <mxCell id="15" value="" style="endArrow=none;html=1;curved=1;" edge="1" parent="1" source="9" target="14">
                    <mxGeometry width="50" height="50" relative="1" as="geometry">
                        <mxPoint x="408" y="291" as="sourcePoint"/>
                        <mxPoint x="345.81138830084205" y="198.7170824512632" as="targetPoint"/>
                    </mxGeometry>
                </mxCell>
                <mxCell id="16" value="apt&lt;br&gt;(aptitude)&lt;br&gt;(package manager)" style="ellipse;whiteSpace=wrap;html=1;" vertex="1" parent="1">
                    <mxGeometry x="375" y="70" width="140" height="80" as="geometry"/>
                </mxCell>
                <mxCell id="17" value="" style="endArrow=none;html=1;curved=1;" edge="1" parent="1" source="9" target="16">
                    <mxGeometry width="50" height="50" relative="1" as="geometry">
                        <mxPoint x="400.84219746428903" y="293.2621304161685" as="sourcePoint"/>
                        <mxPoint x="324.8069469178415" y="226.7060785531114" as="targetPoint"/>
                    </mxGeometry>
                </mxCell>
                <mxCell id="18" value="install" style="ellipse;whiteSpace=wrap;html=1;" vertex="1" parent="1">
                    <mxGeometry x="344" y="10" width="70" height="40" as="geometry"/>
                </mxCell>
                <mxCell id="19" value="update" style="ellipse;whiteSpace=wrap;html=1;" vertex="1" parent="1">
                    <mxGeometry x="445" width="70" height="40" as="geometry"/>
                </mxCell>
                <mxCell id="20" value="upgrade" style="ellipse;whiteSpace=wrap;html=1;" vertex="1" parent="1">
                    <mxGeometry x="530" y="40" width="70" height="40" as="geometry"/>
                </mxCell>
                <mxCell id="21" value="" style="endArrow=none;html=1;curved=1;" edge="1" parent="1" source="16" target="20">
                    <mxGeometry width="50" height="50" relative="1" as="geometry">
                        <mxPoint x="423.5811065172311" y="290.1049637931592" as="sourcePoint"/>
                        <mxPoint x="447.67206508373715" y="159.7802181168554" as="targetPoint"/>
                    </mxGeometry>
                </mxCell>
                <mxCell id="22" value="" style="endArrow=none;html=1;curved=1;" edge="1" parent="1" source="16" target="19">
                    <mxGeometry width="50" height="50" relative="1" as="geometry">
                        <mxPoint x="433.5811065172311" y="300.1049637931592" as="sourcePoint"/>
                        <mxPoint x="457.67206508373715" y="169.7802181168554" as="targetPoint"/>
                    </mxGeometry>
                </mxCell>
                <mxCell id="23" value="" style="endArrow=none;html=1;curved=1;" edge="1" parent="1" source="16" target="18">
                    <mxGeometry width="50" height="50" relative="1" as="geometry">
                        <mxPoint x="470.06693728336427" y="80.93757000609276" as="sourcePoint"/>
                        <mxPoint x="482.40743397634697" y="49.52374120367858" as="targetPoint"/>
                    </mxGeometry>
                </mxCell>
                <mxCell id="24" value="man [command]&lt;br&gt;(fetch manual page)" style="ellipse;whiteSpace=wrap;html=1;" vertex="1" parent="1">
                    <mxGeometry x="490" y="190" width="120" height="60" as="geometry"/>
                </mxCell>
                <mxCell id="25" value="" style="endArrow=none;html=1;curved=1;" edge="1" parent="1" source="9" target="24">
                    <mxGeometry width="50" height="50" relative="1" as="geometry">
                        <mxPoint x="423.5811065172311" y="290.1049637931592" as="sourcePoint"/>
                        <mxPoint x="447.67206508373715" y="159.7802181168554" as="targetPoint"/>
                    </mxGeometry>
                </mxCell>
                <mxCell id="26" value="chown&lt;br&gt;(change owner)" style="ellipse;whiteSpace=wrap;html=1;" vertex="1" parent="1">
                    <mxGeometry x="560" y="260" width="120" height="60" as="geometry"/>
                </mxCell>
                <mxCell id="27" value="" style="endArrow=none;html=1;curved=1;" edge="1" parent="1" source="9" target="26">
                    <mxGeometry width="50" height="50" relative="1" as="geometry">
                        <mxPoint x="444.7796925738744" y="295.8755752328916" as="sourcePoint"/>
                        <mxPoint x="520.4897235278827" y="252.57730084120976" as="targetPoint"/>
                    </mxGeometry>
                </mxCell>
            </root>
        </mxGraphModel>
    </diagram>
</mxfile>